<svg xmlns="http://www.w3.org/2000/svg" width="200" height="200">
  <rect width="200" height="200" x="0" y="0" fill="#37c0ca" rx="44" ry="40"/>
  <rect width="96" height="101" x="34" y="43" fill="#fff" rx="9"/>
  <rect width="96" height="18" x="34" y="43" fill="#0ea5b2" rx="9"/>
  <path fill="#0ea5b2" d="M34 52h96v14H34z"/>
  <rect width="10" height="20" x="55" y="36" fill="#fff" rx="5"/>
  <rect width="10" height="20" x="100" y="36" fill="#fff" rx="5"/>
  <path fill="#37c0ca" stroke="#37c0ca" stroke-linecap="round" stroke-width="3" d="M60 76.615v58M105 77v58M82.5 77v56M45 93h80m-80 20h80"/>
  <path fill="none" stroke="#fff" stroke-linecap="round" stroke-linejoin="round" stroke-width="14" d="m52.83 133.08 10.78 10.89L83 125"/>
  <path fill="none" stroke="#37c0ca" stroke-linecap="round" stroke-linejoin="round" stroke-width="7" d="m52.83 133.08 10.78 10.89L83 125"/>
  <rect width="63" height="83" x="99" y="77" fill="#fac025" rx="7"/>
  <rect width="41" height="6" x="110" y="105" fill="#fff" rx="3"/>
  <rect width="41" height="6" x="110" y="122" fill="#fff" rx="3"/>
  <rect width="41" height="6" x="110" y="139" fill="#fff" rx="3"/>
  <path fill="#37c0ca" d="M146 70h20v23h-20z"/>
  <path fill="#fff" d="m146 77 16 16h-16z"/>
</svg>